<svg width="120" height="120" viewBox="0 0 120 120" fill="none" xmlns:xlink="http://www.w3.org/1999/xlink">
<path d="M119.623 53.3388C119.434 51.6523 117.466 50.3834 115.765 50.3834C110.267 50.3834 105.388 47.1565 103.342 42.162C101.253 37.0477 102.6 31.0845 106.697 27.3267C107.987 26.1471 108.144 24.1718 107.063 22.8008C104.248 19.2273 101.05 15.9988 97.5571 13.2011C96.1907 12.1051 94.1828 12.2577 92.9971 13.5701C89.4209 17.5308 82.9966 19.0026 78.0322 16.9314C72.868 14.7585 69.6085 9.5238 69.9286 3.90506C70.0338 2.13905 68.7427 0.604493 66.9829 0.399506C62.5007 -0.119451 57.9788 -0.134501 53.4837 0.364216C51.746 0.55623 50.456 2.05446 50.5137 3.79816C50.7082 9.3619 47.4117 14.5043 42.2973 16.5993C37.3927 18.603 31.0129 17.1421 27.444 13.2162C26.2644 11.9229 24.2919 11.7641 22.9161 12.8368C19.3207 15.6584 16.0507 18.8889 13.2099 22.4334C12.103 23.8113 12.2665 25.8082 13.5675 26.9918C17.7446 30.7746 19.0913 36.7894 16.9226 41.9632C14.8519 46.8961 9.73028 50.0735 3.86754 50.0735C1.96502 50.0123 0.611038 51.2906 0.400857 53.0208C-0.126409 57.5269 -0.132119 62.1206 0.37543 66.6635C0.564852 68.3573 2.59037 69.6155 4.31022 69.6155C9.53619 69.4826 14.5504 72.7156 16.6569 77.8362C18.753 82.9505 17.4037 88.9113 13.3008 92.6742C12.0173 93.8538 11.8533 95.8242 12.937 97.1939C15.7233 100.745 18.9243 103.976 22.4273 106.797C23.8025 107.905 25.8027 107.749 26.9947 106.435C30.5849 102.465 37.0081 100.996 41.9523 103.072C47.1316 105.239 50.3897 110.473 50.0714 116.093C49.9671 117.859 51.2613 119.398 53.0149 119.599C55.3088 119.867 57.6146 120 59.9277 120C62.1229 120 64.3185 119.88 66.5142 119.636C68.254 119.444 69.5419 117.944 69.4833 116.2C69.2824 110.638 72.5862 105.495 77.6943 103.405C82.6317 101.388 88.9829 102.864 92.5538 106.784C93.7396 108.075 95.7004 108.232 97.0818 107.163C100.671 104.349 103.935 101.12 106.788 97.5659C107.896 96.1908 107.739 94.1911 106.43 93.0054C102.254 89.2252 100.9 83.208 103.069 78.0391C105.108 73.1728 110.039 69.9054 115.343 69.9054L116.085 69.9253C117.807 70.0648 119.389 68.7389 119.597 66.9823C120.127 62.4719 120.133 57.8834 119.623 53.3388ZM59.9996 94.5907C40.895 94.5907 25.4087 79.1046 25.4087 60.0007C25.4087 40.8968 40.8957 25.4107 59.9996 25.4107C79.1038 25.4107 94.5908 40.8968 94.5908 60.0007C94.5908 66.4852 92.803 72.5501 89.6979 77.7366L74.5515 62.5898C75.6481 60.0042 76.2273 57.2013 76.2268 54.3087C76.2268 48.6443 74.0206 43.3193 70.0146 39.3145C66.0098 35.3098 60.6847 33.1043 55.0212 33.1043C53.1312 33.1043 51.2501 33.3553 49.4299 33.851C48.6328 34.0685 47.981 34.7255 47.7689 35.524C47.5518 36.341 47.7963 37.178 48.4347 37.8169C48.4347 37.8169 55.9123 45.352 58.4143 47.8535C58.6763 48.1155 58.6759 48.7409 58.6391 48.9661L58.6156 49.1306C58.3635 51.881 57.8771 55.1827 57.4761 56.4516C57.422 56.505 57.3711 56.5502 57.3163 56.6051C57.2586 56.6627 57.2056 56.7183 57.1501 56.7755C55.8647 57.188 52.5122 57.6799 49.7179 57.93L49.7186 57.915L49.593 57.9466C49.5708 57.9492 49.529 57.9523 49.4742 57.9523C49.1721 57.9523 48.7279 57.8679 48.3241 57.4645C45.7199 54.8604 38.5353 47.7274 38.5353 47.7274C37.8908 47.085 37.2296 46.95 36.7892 46.95C35.7621 46.95 34.8424 47.692 34.5527 48.7563C32.5751 56.0754 34.6718 63.9478 40.0259 69.3026C44.0317 73.3078 49.3572 75.5133 55.0219 75.5133C57.9146 75.5133 60.7175 74.9346 63.3025 73.8382L78.6135 89.149C73.238 92.5887 66.8547 94.5907 59.9996 94.5907Z" fill="#4CC97E"/>
</svg>
