<svg width="512" height="512" viewBox="0 0 512 512" fill="none" xmlns="http://www.w3.org/2000/svg">
<g clip-path="url(#clip0_1_8)">
<path d="M14.9777 391.006H406.995C410.511 391.006 413.91 389.775 416.605 387.533C420.37 384.38 506.261 310.492 511.498 150.995H90.479C85.2618 295.775 6.16026 363.826 5.33822 364.505C0.519004 368.578 -1.25408 375.229 0.914022 381.147C3.06712 387.05 8.67837 391.006 14.9777 391.006V391.006Z" fill="#74E262"/>
<path d="M496.998 60.9907H421.995V45.9901C421.995 37.5897 415.395 30.9894 406.994 30.9894C398.594 30.9894 391.994 37.5897 391.994 45.9901V60.9907H315.99V45.9901C315.99 37.5897 309.39 30.9894 300.99 30.9894C292.589 30.9894 285.989 37.5897 285.989 45.9901V60.9907H210.985V45.9901C210.985 37.5897 204.385 30.9894 195.985 30.9894C187.584 30.9894 180.984 37.5897 180.984 45.9901V60.9907H105.981C97.5804 60.9907 90.9801 67.591 90.9801 75.9914V120.993H511.999V75.9914C511.999 67.591 505.399 60.9907 496.998 60.9907Z" fill="#74E262"/>
<path d="M435.869 410.533C427.723 417.316 417.499 421.008 406.995 421.008H90.9811V466.01C90.9811 474.301 97.6904 481.011 105.982 481.011H496.999C505.291 481.011 512 474.301 512 466.01V297.856C483.079 368.811 442.721 404.798 435.869 410.533Z" fill="#74E262"/>
</g>
<defs>
<clipPath id="clip0_1_8">
<rect width="512" height="512" fill="white"/>
</clipPath>
</defs>
</svg>
