<svg width="512" height="512" viewBox="0 0 512 512" fill="none" xmlns="http://www.w3.org/2000/svg">
<g clip-path="url(#clip0_1_37)">
<path d="M509.063 186.951C506.56 183.897 502.823 182.114 498.903 182.114H449.073C436.776 149.68 420.756 117.902 402.547 105.907C339.555 64.467 172.471 64.467 109.479 105.907C91.2567 117.915 75.3022 149.733 62.9398 182.114H13.1097C9.15058 182.114 5.42742 183.897 2.94968 186.951C0.458832 189.993 -0.537506 194.017 0.275296 197.885L7.65607 233.648C8.9146 239.744 14.2896 244.096 20.4905 244.096H35.252C21.0018 260.536 14.0929 281.236 14.0012 301.95C13.9094 327.54 23.6237 350.665 41.3874 367.026C41.584 367.197 41.7807 367.315 41.9642 367.485V417.525C41.9642 428.367 50.7739 437.189 61.6288 437.189H107.591C118.446 437.189 127.256 428.367 127.256 417.525V397.414H384.744V417.525C384.744 428.367 393.554 437.189 404.409 437.189H450.371C461.2 437.189 470.036 428.367 470.036 417.525V368.468C488.888 351.203 497.894 327.448 498.012 303.732C498.091 282.311 490.867 260.851 475.778 244.07H491.523C497.75 244.07 503.125 239.718 504.357 233.609L511.751 197.858C512.511 194.017 511.554 190.019 509.063 186.951ZM131.071 138.747C181.281 105.697 330.719 105.697 380.903 138.747C390.656 145.144 403.202 171.01 414.7 202.683H97.3003C108.771 171.023 121.317 145.17 131.071 138.747ZM72.2608 306.879C72.2608 285.51 89.5918 268.205 110.948 268.205C132.329 268.205 149.634 285.51 149.634 306.879C149.634 328.248 132.329 345.566 110.948 345.566C89.5918 345.566 72.2608 328.248 72.2608 306.879ZM401.564 345.566C380.208 345.566 362.877 328.248 362.877 306.879C362.877 285.51 380.208 268.205 401.564 268.205C422.946 268.205 440.251 285.51 440.251 306.879C440.251 328.248 422.92 345.566 401.564 345.566Z" fill="#74E262"/>
</g>
<defs>
<clipPath id="clip0_1_37">
<rect width="512" height="512" fill="white"/>
</clipPath>
</defs>
</svg>
