<svg width="500" height="500" viewBox="0 0 500 500" fill="none" xmlns="http://www.w3.org/2000/svg">
<path fill-rule="evenodd" clip-rule="evenodd" d="M195.448 250.001C195.448 280.079 219.882 304.514 249.961 304.514C280.039 304.514 304.474 280.079 304.474 250.001V249.548C298.655 255.453 290.669 259.087 281.759 259.087C264.22 259.087 249.961 244.823 249.961 227.288C249.961 214.662 257.404 203.665 268.041 198.576C262.234 196.523 256.12 195.479 249.961 195.489C219.882 195.488 195.448 219.926 195.448 250.001ZM455.839 219.017C422.035 176.047 339.726 104.633 250.049 104.633C160.287 104.633 77.887 176.048 44.082 219.017C36.452 228.831 32.273 239.461 31.999 250.001C32.274 260.542 36.452 271.172 44.082 280.984C77.888 323.963 160.197 395.367 249.961 395.367C339.725 395.367 422.035 323.963 455.839 280.984C463.557 271.171 467.737 260.542 468.012 250.001C467.737 239.461 463.557 228.831 455.839 219.017V219.017ZM249.961 340.854C199.814 340.854 159.106 300.151 159.106 250.001C159.106 199.85 199.814 159.146 249.961 159.146C300.107 159.146 340.815 199.85 340.815 250.001C340.814 300.15 300.106 340.854 249.961 340.854Z" fill="#74E262"/>
</svg>
