<svg width="512" height="512" viewBox="0 0 512 512" fill="none" xmlns="http://www.w3.org/2000/svg">
<g clip-path="url(#clip0_1_61)">
<path d="M503.385 227.579C502.576 220.383 494.182 214.969 486.924 214.969C463.467 214.969 442.649 201.201 433.918 179.891C425.006 158.07 430.756 132.627 448.233 116.594C453.737 111.561 454.408 103.133 449.794 97.2834C437.784 82.0364 424.14 68.2617 409.238 56.3249C403.408 51.6484 394.841 52.2994 389.782 57.8992C374.524 74.7981 347.114 81.0776 325.933 72.2407C303.899 62.9697 289.992 40.6349 291.358 16.6616C291.807 9.12661 286.298 2.57917 278.79 1.70456C259.666 -0.509658 240.373 -0.57387 221.194 1.55399C213.78 2.37325 208.276 8.7657 208.522 16.2055C209.352 39.9441 195.287 61.8848 173.466 70.8236C152.54 79.3726 125.32 73.1396 110.093 56.3891C105.06 50.8712 96.644 50.1937 90.7741 54.7705C75.434 66.8092 61.4822 80.5927 49.3616 95.7158C44.6387 101.595 45.3362 110.115 50.8872 115.165C68.7094 131.305 74.4553 156.968 65.2021 179.043C56.3674 200.09 34.5153 213.647 9.50127 213.647C1.38395 213.386 -4.39294 218.84 -5.2897 226.222C-7.53934 245.448 -7.5637 265.048 -5.39819 284.431C-4.59 291.658 4.05208 297.026 11.39 297.026C33.6872 296.459 55.0809 310.253 64.0684 332.101C73.0117 353.922 67.2547 379.355 49.7491 395.41C44.2733 400.443 43.5736 408.85 48.1969 414.694C60.0851 429.846 73.7424 443.629 88.6883 455.668C94.556 460.393 103.09 459.731 108.176 454.124C123.494 437.186 150.899 430.917 171.994 439.772C194.092 449.018 207.993 471.351 206.635 495.331C206.19 502.866 211.712 509.433 219.194 510.288C228.981 511.433 238.819 512 248.688 512C258.054 512 267.422 511.488 276.79 510.445C284.213 509.626 289.708 503.227 289.458 495.785C288.601 472.057 302.697 450.114 324.491 441.193C345.557 432.589 372.655 438.886 387.891 455.612C392.95 461.119 401.316 461.788 407.21 457.229C422.524 445.221 436.449 431.444 448.623 416.281C453.35 410.414 452.679 401.882 447.097 396.823C429.279 380.694 423.502 355.021 432.755 332.967C441.453 312.204 462.492 298.263 485.122 298.263L488.288 298.348C495.635 298.943 502.386 293.286 503.274 285.791C505.535 266.547 505.559 246.969 503.385 227.579ZM248.995 403.587C167.483 403.587 101.409 337.513 101.409 256.003C101.409 174.493 167.486 108.419 248.995 108.419C330.505 108.419 396.582 174.493 396.582 256.003C396.582 283.67 388.954 309.547 375.706 331.676L311.082 267.05C315.761 256.018 318.232 244.059 318.23 231.717C318.23 207.549 308.817 184.829 291.725 167.742C274.638 150.655 251.918 141.245 227.754 141.245C219.69 141.245 211.664 142.316 203.898 144.431C200.497 145.359 197.716 148.162 196.811 151.569C195.885 155.055 196.928 158.626 199.652 161.352C199.652 161.352 231.556 193.502 242.231 204.175C243.349 205.293 243.347 207.961 243.19 208.922L243.09 209.624C242.014 221.359 239.939 235.446 238.228 240.86C237.997 241.088 237.78 241.281 237.546 241.515C237.3 241.761 237.074 241.998 236.837 242.242C231.353 244.002 217.049 246.101 205.127 247.168L205.13 247.104L204.594 247.239C204.499 247.25 204.321 247.263 204.087 247.263C202.798 247.263 200.903 246.903 199.18 245.182C188.069 234.071 157.415 203.637 157.415 203.637C154.665 200.896 151.844 200.32 149.965 200.32C145.583 200.32 141.659 203.486 140.423 208.027C131.985 239.255 140.931 272.844 163.775 295.691C180.866 312.78 203.588 322.19 227.757 322.19C240.099 322.19 252.058 319.721 263.087 315.043L328.413 380.369C305.478 395.045 278.243 403.587 248.995 403.587Z" fill="white"/>
</g>
<defs>
<clipPath id="clip0_1_61">
<rect width="512" height="512" fill="white"/>
</clipPath>
</defs>
</svg>
