<svg width="512" height="512" viewBox="0 0 512 512" fill="none" xmlns="http://www.w3.org/2000/svg">
<g clip-path="url(#clip0_1_80)">
<path d="M361.639 57.4678L344.444 87.2232L404.027 121.615L421.224 91.8588C425.96 83.5991 423.14 73.119 414.912 68.347L385.156 51.1506C376.924 46.3837 366.412 49.2039 361.639 57.4678Z" fill="#74E262"/>
<path d="M256 77.4358C266.876 77.4358 277.5 78.5 288 80V52.1679L310 51.9998V16C310 7.15629 302.844 0 294 0H218.168C209.324 0 202.168 7.15629 202.168 16V51.9998L224 52.1679V80C234.5 78.5 245.124 77.4358 256 77.4358Z" fill="#74E262"/>
<path d="M256 96C141.125 96 48 189.124 48 304C48 418.876 141.125 512 256 512C370.875 512 464 418.876 464 304C464 189.124 370.875 96 256 96ZM353.201 401.76L232 317.852V199.396H266.976V299.528L373.107 373.004L353.201 401.76Z" fill="#74E262"/>
</g>
<defs>
<clipPath id="clip0_1_80">
<rect width="512" height="512" fill="white"/>
</clipPath>
</defs>
</svg>
